<svg width="20" height="19" fill="none" xmlns="http://www.w3.org/2000/svg"><g clip-path="url(#clip0)" fill="#fff"><path d="M14.245 0H5.713A5.042 5.042 0 00.677 5.036v8.532a5.042 5.042 0 005.036 5.036h8.532a5.042 5.042 0 005.036-5.036V5.036A5.042 5.042 0 0014.245 0zm3.945 13.568a3.95 3.95 0 01-3.945 3.946H5.713a3.95 3.95 0 01-3.946-3.946V5.036a3.95 3.95 0 013.946-3.945h8.532a3.95 3.95 0 013.945 3.945v8.532z"/><path d="M8.64 9.021c.597-.26.896-.819.896-1.676 0-1.237-.706-1.856-2.12-1.856H5.383a.758.758 0 00-.422.116.359.359 0 00-.179.317v6.853c0 .112.056.21.169.295a.7.7 0 00.432.126h2.235c.647 0 1.16-.177 1.54-.532.38-.355.569-.923.569-1.703v-.221c0-.492-.092-.866-.274-1.123-.183-.257-.454-.455-.812-.596zm-2.499-2.33h1.17c.268 0 .477.08.628.237.15.159.226.375.226.649 0 .281-.072.502-.216.664-.144.162-.353.243-.627.243h-1.18V6.69zm2.214 4.154c0 .766-.34 1.15-1.022 1.15H6.14V9.559h1.192c.337 0 .592.088.764.264.172.175.258.46.258.854v.168zm6.189.201c.148 0 .267-.007.359-.021a1.01 1.01 0 00.3-.105.515.515 0 00.242-.287 1.44 1.44 0 00.08-.517c0-.572-.213-1.047-.638-1.424-.426-.378-.937-.567-1.534-.567-.64 0-1.185.208-1.634.622-.45.415-.675.91-.675 1.487v.896c0 .647.237 1.169.711 1.566.475.397 1.088.595 1.84.595.527 0 .968-.096 1.323-.29.355-.193.533-.388.533-.585a.684.684 0 00-.148-.395c-.098-.137-.221-.206-.369-.206-.077 0-.246.067-.506.2-.26.134-.524.2-.79.2-.373 0-.672-.092-.897-.278a.905.905 0 01-.337-.733v-.159h2.14zm-2.14-1.077a.67.67 0 01.274-.557 1.03 1.03 0 01.643-.212c.26 0 .48.073.66.217a.692.692 0 01.268.561c0 .106-.023.176-.069.212-.045.036-.124.054-.237.054h-1.54V9.97zm2.603-3.506h-3.41a.545.545 0 000 1.09h3.41a.546.546 0 000-1.09z"/></g><defs><clipPath id="clip0"><path fill="#fff" transform="translate(.677)" d="M0 0h18.604v18.604H0z"/></clipPath></defs></svg>