<svg width="12" height="19" fill="none" xmlns="http://www.w3.org/2000/svg"><path d="M7.256 18.568h-2.9a.892.892 0 01-.878-.903v-6.72H1.786a.892.892 0 01-.878-.902v-2.88c0-.497.394-.902.878-.902h1.692V4.82c0-1.43.437-2.646 1.264-3.517.83-.876 1.99-1.338 3.355-1.338l2.212.003a.892.892 0 01.877.903v2.673a.891.891 0 01-.878.903h-1.49c-.453 0-.569.094-.594.123-.04.047-.089.182-.089.553V6.26h2.06c.156 0 .306.04.435.113a.91.91 0 01.452.79v2.88a.892.892 0 01-.88.901H8.136v6.72a.892.892 0 01-.879.903zm-2.716-1.09h2.533v-7.02c0-.333.263-.603.587-.603h2.36V7.352H7.66a.595.595 0 01-.587-.603V5.122c0-.426.042-.91.355-1.275.379-.44.975-.491 1.39-.491h1.306V1.057l-2.027-.004c-2.194 0-3.557 1.443-3.557 3.765v1.93a.595.595 0 01-.586.603H1.97v2.503h1.984c.323 0 .586.27.586.602v7.02zm5.767-16.42z" fill="#fff"/></svg>