<svg width="19" height="19" fill="none" xmlns="http://www.w3.org/2000/svg"><g clip-path="url(#clip0)" fill="#fff"><path d="M13.85 0H5.316A5.042 5.042 0 00.28 5.036v8.532a5.042 5.042 0 005.036 5.036h8.532a5.042 5.042 0 005.036-5.036V5.036A5.042 5.042 0 0013.849 0zm3.944 13.568a3.95 3.95 0 01-3.945 3.946H5.317a3.95 3.95 0 01-3.945-3.946V5.036a3.95 3.95 0 013.945-3.945h8.532a3.95 3.95 0 013.945 3.945v8.532z"/><path d="M9.583 4.215a5.093 5.093 0 00-5.087 5.087 5.093 5.093 0 005.087 5.087 5.093 5.093 0 005.087-5.087 5.093 5.093 0 00-5.087-5.087zm0 9.083a4 4 0 01-3.996-3.996 4 4 0 013.996-3.996 4 4 0 013.996 3.996 4 4 0 01-3.996 3.996zm5.208-10.889c-.828 0-1.503.674-1.503 1.503a1.505 1.505 0 003.007 0c0-.83-.675-1.503-1.504-1.503zm0 1.915a.413.413 0 11.002-.826.413.413 0 01-.002.826z"/></g><defs><clipPath id="clip0"><path fill="#fff" transform="translate(.28)" d="M0 0h18.604v18.604H0z"/></clipPath></defs></svg>