<svg width="34" height="34" fill="none" xmlns="http://www.w3.org/2000/svg"><g clip-path="url(#clip0)"><path d="M17.95 33.783a.739.739 0 001.044-1.044L3.261 17.004 18.996 1.27A.739.739 0 1017.95.226L1.695 16.482a.739.739 0 000 1.045L17.95 33.783z" fill="#009688"/><path d="M14.994 17.527L31.25 33.783a.739.739 0 001.045-1.045L16.562 17.004 32.296 1.27A.74.74 0 1031.252.226L14.994 16.482a.739.739 0 00-.001 1.045z" fill="#009688"/><path d="M18.473.008a.739.739 0 01.523 1.262L3.26 17.004l15.735 15.733a.739.739 0 01-1.045 1.045L1.695 17.525a.739.739 0 010-1.044L17.95.223a.739.739 0 01.522-.216z" fill="#C8C8C8"/><path d="M31.773.008a.739.739 0 01.523 1.263L16.562 17.004l15.734 15.733a.74.74 0 11-1.046 1.046L14.993 17.527a.739.739 0 010-1.045L31.25.226a.739.739 0 01.523-.218z" fill="#C8C8C8"/></g><defs><clipPath id="clip0"><path fill="#fff" transform="rotate(-180 17 17)" d="M0 0h34v34H0z"/></clipPath></defs></svg>