<svg width="30" height="30" fill="none" xmlns="http://www.w3.org/2000/svg"><g opacity=".8" clip-path="url(#clip0)" fill="#fff"><path d="M25.739 4.261A14.451 14.451 0 0015.452 0h-.002c-1.922 0-3.795.372-5.567 1.106a14.476 14.476 0 00-4.719 3.155 14.453 14.453 0 00-4.26 10.287c0 2.318.559 4.62 1.618 6.673L.077 28.206a1.337 1.337 0 00.319 1.398 1.336 1.336 0 001.397.32l6.986-2.446a14.593 14.593 0 006.673 1.619c3.886 0 7.539-1.514 10.287-4.262a14.453 14.453 0 004.26-10.287 14.45 14.45 0 00-4.26-10.287zm-1.244 19.33a12.704 12.704 0 01-9.043 3.746c-2.09 0-4.166-.517-6.004-1.495a1.355 1.355 0 00-1.08-.084L2.02 27.98l2.221-6.346a1.356 1.356 0 00-.084-1.081 12.82 12.82 0 01-1.495-6.004c0-3.416 1.33-6.627 3.746-9.043A12.706 12.706 0 0115.45 1.76c3.417 0 6.628 1.33 9.044 3.746a12.704 12.704 0 013.745 9.043c0 3.416-1.33 6.628-3.745 9.043z"/><path d="M20.858 15.848a1.718 1.718 0 00-2.427 0l-.732.732a10.654 10.654 0 01-4.279-4.28l.732-.731c.67-.67.67-1.758 0-2.428L12.18 7.17a1.719 1.719 0 00-2.428 0L8.174 8.747c-.904.904-.949 2.458-.127 4.375.714 1.665 2.02 3.496 3.677 5.153 1.658 1.658 3.488 2.964 5.154 3.678.91.39 1.74.585 2.456.585.79 0 1.445-.238 1.919-.712l1.578-1.578c.324-.324.503-.755.503-1.214 0-.458-.179-.89-.503-1.214l-1.973-1.972zm-.85 4.734c-.257.258-1.05.348-2.437-.246-1.465-.628-3.1-1.801-4.602-3.305-1.504-1.503-2.677-3.137-3.305-4.602-.594-1.386-.504-2.18-.246-2.438l1.548-1.548 1.912 1.912-.917.917a1.343 1.343 0 00-.248 1.563 12.413 12.413 0 005.452 5.452c.52.266 1.15.166 1.563-.248l.917-.917 1.912 1.912-1.548 1.548z"/></g><defs><clipPath id="clip0"><path fill="#fff" d="M0 0h30v30H0z"/></clipPath></defs></svg>