<svg width="34" height="34" fill="none" xmlns="http://www.w3.org/2000/svg"><g clip-path="url(#clip0)"><path d="M16.05.217a.739.739 0 00-1.044 1.045l15.733 15.734L15.004 32.73a.739.739 0 101.045 1.045l16.257-16.257a.739.739 0 000-1.045L16.05.217z" fill="#009688"/><path d="M19.006 16.473L2.75.217a.739.739 0 00-1.045 1.045l15.733 15.734L1.704 32.73a.739.739 0 101.044 1.045l16.257-16.257a.739.739 0 00.001-1.045z" fill="#009688"/><path d="M15.527 33.992a.739.739 0 01-.523-1.262L30.74 16.996 15.004 1.263A.739.739 0 0116.05.218l16.257 16.257a.739.739 0 010 1.044L16.049 33.776a.739.739 0 01-.522.216z" fill="#C8C8C8"/><path d="M2.227 33.992a.74.74 0 01-.523-1.262l15.734-15.734L1.704 1.263A.74.74 0 112.75.217l16.256 16.256a.739.739 0 010 1.045L2.75 33.774a.739.739 0 01-.523.218z" fill="#C8C8C8"/></g><defs><clipPath id="clip0"><path fill="#fff" d="M0 0h34v34H0z"/></clipPath></defs></svg>