<svg width="32" height="42" fill="none" xmlns="http://www.w3.org/2000/svg"><path d="M13.588 22.377h11.106c.17.45.435.873.798 1.236a3.476 3.476 0 002.471 1.021 3.488 3.488 0 100-6.977c-.933 0-1.811.364-2.471 1.023a3.464 3.464 0 00-.798 1.235H13.588a6.526 6.526 0 00-.999-2.424l5.6-5.576a6.548 6.548 0 003.807 1.217c3.628 0 6.579-2.946 6.579-6.566 0-3.62-2.951-6.566-6.58-6.566-3.627 0-6.578 2.945-6.578 6.566 0 1.317.392 2.544 1.064 3.573l-5.626 5.602a6.55 6.55 0 00-3.728-1.16c-3.628 0-6.579 2.945-6.579 6.565 0 3.62 2.951 6.566 6.579 6.566 1.4 0 2.7-.44 3.768-1.188l5.308 5.181a6.52 6.52 0 00-1.168 3.73c0 3.62 2.951 6.565 6.579 6.565 3.627 0 6.578-2.945 6.578-6.566 0-3.62-2.95-6.566-6.578-6.566a6.55 6.55 0 00-3.654 1.11l-5.345-5.218c.471-.71.807-1.517.973-2.383zm13.648-1.957c.194-.194.452-.3.727-.3a1.027 1.027 0 11-.728 1.753 1.027 1.027 0 010-1.453zm-5.24-17.959a4.113 4.113 0 014.112 4.105 4.113 4.113 0 01-8.225 0 4.113 4.113 0 014.113-4.105zM3.014 21.146a4.113 4.113 0 018.225 0 4.113 4.113 0 01-8.225 0zm22.712 14.288a4.113 4.113 0 01-8.225 0 4.113 4.113 0 018.225 0z" fill="#fff"/></svg>