<svg width="30" height="30" fill="none" xmlns="http://www.w3.org/2000/svg"><g opacity=".8" clip-path="url(#clip0)" fill="#fff"><path d="M28.528 17.612c.157-.866.237-1.725.237-2.554 0-1.867-.367-3.678-1.09-5.383-.722-1.7-1.713-3.187-2.946-4.423-1.232-1.236-2.718-2.229-4.415-2.951a13.629 13.629 0 00-5.372-1.093c-.827 0-1.684.08-2.55.238A7.733 7.733 0 007.883.029C5.7.03 3.812.813 2.268 2.36.724 3.907-.06 5.8-.06 7.985c0 1.653.476 3.173 1.414 4.52a14.32 14.32 0 00-.237 2.554c0 1.867.367 3.678 1.09 5.384.722 1.698 1.713 3.187 2.946 4.423 1.232 1.235 2.718 2.228 4.414 2.95a13.628 13.628 0 005.373 1.094c.826 0 1.683-.08 2.549-.238a7.734 7.734 0 004.512 1.416c2.18 0 4.07-.784 5.613-2.33 1.544-1.547 2.327-3.44 2.327-5.625a7.769 7.769 0 00-1.414-4.52zm-2.156 8.898c-1.22 1.221-2.649 1.815-4.37 1.815a5.94 5.94 0 01-3.597-1.165 1.438 1.438 0 00-1.107-.246 12.58 12.58 0 01-2.357.232 11.88 11.88 0 01-4.684-.952c-1.489-.634-2.787-1.5-3.86-2.575-1.073-1.076-1.937-2.377-2.57-3.867a11.948 11.948 0 01-.95-4.694c0-.763.078-1.557.231-2.361a1.442 1.442 0 00-.246-1.11A5.96 5.96 0 011.7 7.984c0-1.725.593-3.157 1.811-4.378 1.22-1.22 2.649-1.814 4.37-1.814a5.94 5.94 0 013.596 1.163c.32.231.723.321 1.108.248a12.548 12.548 0 012.357-.233c1.625 0 3.201.32 4.684.952 1.488.634 2.787 1.501 3.86 2.576 1.072 1.075 1.937 2.376 2.57 3.866.63 1.486.95 3.066.95 4.694 0 .763-.078 1.557-.232 2.362-.073.385.017.79.247 1.11a5.967 5.967 0 011.162 3.602c0 1.725-.593 3.157-1.811 4.378z"/><path d="M18.735 14.242a14.81 14.81 0 00-1.739-1.007 19.924 19.924 0 00-1.712-.758 3.148 3.148 0 01-.99-.577c-.191-.172-.217-.308-.217-.419a.51.51 0 01.249-.479c.262-.182.702-.279 1.272-.279a3.49 3.49 0 011.513.32c.864.411 1.166.49 1.419.49.652 0 1.208-.335 1.565-.941.278-.474.419-.954.419-1.428 0-.595-.258-1.129-.745-1.546-.393-.334-.891-.58-1.48-.729a11.712 11.712 0 00-1.415-.272 10.436 10.436 0 00-1.276-.083c-.722 0-1.418.086-2.07.255-.666.174-1.3.45-1.885.822a4.361 4.361 0 00-1.53 1.697c-.37.707-.557 1.524-.557 2.428 0 .808.153 1.546.454 2.193.305.655.719 1.192 1.23 1.596a9.4 9.4 0 001.476.952c.51.267 1.02.51 1.517.721.454.194.876.397 1.252.602.294.16.52.35.693.582a.98.98 0 01.198.613c0 .397-.144.55-.299.657-.306.211-.699.314-1.201.314a2.51 2.51 0 01-1.013-.194c-.386-.166-.582-.314-.68-.41a8.278 8.278 0 00-.762-.655c-.389-.295-.778-.444-1.157-.444-.415 0-1.02.148-1.544.855-.363.488-.546.998-.546 1.516 0 .989.634 1.855 1.886 2.574 1.094.628 2.406.947 3.9.947 1.724 0 3.148-.47 4.235-1.396 1.13-.962 1.701-2.322 1.701-4.04 0-1.007-.205-1.908-.611-2.679-.407-.772-.928-1.377-1.55-1.798zm-.68 7.174c-.77.657-1.782.977-3.094.977-1.184 0-2.202-.24-3.026-.714-.637-.366-1.003-.747-1.003-1.045 0-.13.067-.287.198-.463a.665.665 0 01.121-.131.955.955 0 01.11.073c.201.152.403.326.596.514.3.293.696.542 1.211.764.52.224 1.094.337 1.708.337.857 0 1.597-.21 2.197-.623.694-.478 1.062-1.207 1.062-2.11a2.73 2.73 0 00-.547-1.665 3.851 3.851 0 00-1.262-1.078 16.57 16.57 0 00-1.403-.675 19.897 19.897 0 01-1.393-.662 7.658 7.658 0 01-1.2-.773c-.298-.235-.535-.549-.726-.958-.192-.412-.29-.9-.29-1.447 0-.617.121-1.16.358-1.612.233-.448.532-.784.913-1.026a4.87 4.87 0 011.386-.604 6.473 6.473 0 011.627-.198c.33 0 .686.023 1.06.07a9.98 9.98 0 011.2.23c.325.083.585.206.77.363.127.108.127.168.127.204 0 .156-.06.335-.176.533a.492.492 0 01-.034.052 8.545 8.545 0 01-.68-.299 5.238 5.238 0 00-2.267-.489c-.944 0-1.71.2-2.276.594a2.258 2.258 0 00-1.004 1.926c0 .662.277 1.26.802 1.731a4.89 4.89 0 001.539.913c.473.18.997.412 1.558.69.55.272 1.066.57 1.533.887.38.257.709.648.979 1.16.271.515.408 1.14.408 1.857 0 1.194-.354 2.077-1.082 2.697z"/></g><defs><clipPath id="clip0"><path fill="#fff" d="M0 0h30v30H0z"/></clipPath></defs></svg>