<svg width="19" height="16" fill="none" xmlns="http://www.w3.org/2000/svg"><path d="M7.152 15.995c-3.105 0-5.56-.543-6.734-1.488l-.023-.019-.02-.02a.954.954 0 01-.25-1.005l.01-.03a.972.972 0 01.888-.61c.794-.014 1.489-.108 2.12-.292-1.007-.468-1.705-1.278-2.121-2.45a.869.869 0 01.303-1.013c.08-.06.17-.105.264-.135A5.867 5.867 0 01.386 6.777L.38 6.753l-.005-.025c-.078-.393.097-.797.419-.97a.9.9 0 01.429-.122A4.536 4.536 0 01.88 4.591c-.19-.979-.033-1.96.466-2.915l.115-.23a.645.645 0 011.03-.168l.211.21c1.66 1.741 3.148 2.567 5.72 3.133a4.557 4.557 0 011.23-2.627 4.316 4.316 0 013.08-1.358h.008c.852 0 1.908.486 2.547.829.548-.18 1.209-.457 1.894-.751a.865.865 0 01.968.17.85.85 0 01.185.935 4.68 4.68 0 01-.17.408c.094.043.18.101.253.174.219.219.31.562.232.874l-.008.03c-.262.846-.767 1.535-1.434 1.968-.111 5.933-4.58 10.722-10.055 10.722zm-5.687-2.096c1.106.626 3.214 1.005 5.687 1.005 2.376 0 4.62-1.02 6.315-2.873 1.71-1.869 2.651-4.35 2.651-6.986v-.03c0-.238.132-.456.343-.568.43-.227.777-.614 1.003-1.11a.64.64 0 01-.616-.251.64.64 0 01-.004-.762c.09-.123.17-.252.243-.384a17.85 17.85 0 01-1.642.62.698.698 0 01-.537-.059c-.868-.484-1.677-.773-2.165-.774-1.8.027-3.262 1.569-3.262 3.437a.642.642 0 01-.769.632c-2.965-.585-4.722-1.46-6.55-3.297a3.22 3.22 0 00-.212 1.884c.123.632.45 1.266.945 1.832a.64.64 0 01.062.765.639.639 0 01-.711.28 2.947 2.947 0 01-.6-.23c.381.83 1.038 1.596 1.863 2.161a.644.644 0 01-.411 1.173 2.895 2.895 0 01-.854-.185c.462.942 1.202 1.46 2.34 1.659a.644.644 0 01.192 1.203c-.97.514-2.032.79-3.311.858z" fill="#fff"/></svg>