<svg width="22" height="19" fill="none" xmlns="http://www.w3.org/2000/svg"><path d="M17.365 4.387l.003-.006V4.38h0a.532.532 0 01.164-.227c.057-.042.158-.09.354-.09h2.25c.119 0 .19.013.229.025a.6.6 0 01-.027.134l.478.146-.488-.109c-.053.239-.242.654-.54 1.187a28.016 28.016 0 01-1.01 1.639 54.733 54.733 0 01-1.367 1.977l-.006.008-.012.012-.031.049-.012.018c-.103.161-.255.4-.278.68-.028.331.123.607.317.851.03.039.068.078.088.099h0l.12.122a56.917 56.917 0 00.367.365c.294.293.676.678 1.066 1.097.391.42.785.866 1.104 1.283.327.426.541.776.622 1.015a.52.52 0 01.027.193.088.088 0 01-.004.019l-.001.001a.25.25 0 01-.063.03.857.857 0 01-.262.034h-2.25a.685.685 0 01-.33-.073 1.67 1.67 0 01-.386-.303 14.13 14.13 0 01-.473-.496l-.144-.156a25.95 25.95 0 00-.954-.98h0l-.006-.006c-1.348-1.26-2.045-1.549-2.584-1.549-.172 0-.446.005-.677.162-.263.18-.345.461-.38.688-.036.23-.041.53-.04.894l.003.505c.003.274.006.587.006.964 0 .203-.031.206-.038.207h-.002c-.087.057-.351.143-1.068.143-2.19 0-4.671-1.302-6.457-3.792h0l-.004-.005c-1.373-1.87-2.243-3.505-2.768-4.735a12.69 12.69 0 01-.546-1.516c-.113-.402-.145-.635-.145-.708 0-.044.004-.07.007-.082a.654.654 0 01.265-.037h2.25c.215 0 .277.043.309.072.055.049.13.158.236.447.563 1.593 1.319 3.088 2.038 4.193.358.55.717 1.018 1.047 1.354.165.168.334.315.502.422.16.103.37.202.604.202a.95.95 0 00.388-.074.773.773 0 00.362-.332c.14-.248.166-.58.166-.929V6.17c-.049-.851-.313-1.346-.58-1.699a4.649 4.649 0 00-.16-.2l-.008-.01a2.484 2.484 0 01-.11-.139.452.452 0 01-.029-.045.07.07 0 01.01-.005.15.15 0 01.056-.008H12.1c.052 0 .084.004.1.008.004.01.009.024.013.044.012.054.021.135.021.253v4.33c0 .584.307 1.128.859 1.128.52 0 .902-.33 1.399-.813l.01-.01.01-.01c.85-.924 1.564-2.083 2.06-2.995a22.417 22.417 0 00.782-1.586l.011-.025zm.018 4.713s0 0 0 0h0zM1.221 4.088v0zm-.014.017s0 0 0 0h0z" stroke="#fff"/></svg>