<svg viewBox="0 0 33 31" fill="none" xmlns="http://www.w3.org/2000/svg"><path d="M16.5 30.164c-.47 0-.923-.17-1.276-.48a384.178 384.178 0 00-3.752-3.227l-.006-.005c-3.325-2.833-6.195-5.28-8.193-7.69C1.04 16.068 0 13.513 0 10.722 0 8.011.93 5.51 2.618 3.678 4.326 1.825 6.67.805 9.218.805c1.906 0 3.65.602 5.186 1.79A10.612 10.612 0 0116.5 4.783a10.638 10.638 0 012.096-2.188c1.536-1.188 3.28-1.79 5.185-1.79 2.549 0 4.893 1.02 6.601 2.873C32.07 5.509 33 8.01 33 10.722c0 2.791-1.04 5.346-3.273 8.04-1.997 2.41-4.868 4.857-8.192 7.69a379.841 379.841 0 00-3.76 3.233 1.936 1.936 0 01-1.275.48zM9.219 2.738c-2.003 0-3.842.799-5.18 2.25-1.358 1.473-2.106 3.51-2.106 5.734 0 2.347.872 4.447 2.828 6.807 1.89 2.281 4.703 4.677 7.959 7.452l.006.005c1.138.97 2.428 2.07 3.771 3.244a450.341 450.341 0 013.784-3.25c3.256-2.774 6.067-5.17 7.958-7.451 1.956-2.36 2.828-4.46 2.828-6.807 0-2.224-.748-4.26-2.106-5.734-1.338-1.451-3.177-2.25-5.18-2.25-1.466 0-2.813.466-4.002 1.386-1.06.82-1.798 1.856-2.23 2.58A1.21 1.21 0 0116.5 7.3a1.21 1.21 0 01-1.048-.595c-.433-.725-1.17-1.762-2.23-2.581-1.19-.92-2.537-1.386-4.003-1.386z" fill="#000"/></svg>