<svg viewBox="0 0 33 31" fill="none" xmlns="http://www.w3.org/2000/svg">
<path d="M16.5 30.1641C16.0302 30.1641 15.5772 29.9939 15.2243 29.6847C13.8911 28.519 12.6058 27.4236 11.4719 26.4573L11.4661 26.4522C8.14147 23.6191 5.27054 21.1724 3.273 18.7622C1.04006 16.0677 0 13.513 0 10.7222C0 8.0106 0.929785 5.50901 2.6179 3.67789C4.32616 1.82511 6.67013 0.804688 9.21879 0.804688C11.1237 0.804688 12.8682 1.40692 14.4037 2.59452C15.1787 3.19398 15.8811 3.92764 16.5 4.78341C17.1191 3.92764 17.8213 3.19398 18.5965 2.59452C20.132 1.40692 21.8765 0.804688 23.7814 0.804688C26.3298 0.804688 28.674 1.82511 30.3823 3.67789C32.0704 5.50901 32.9999 8.0106 32.9999 10.7222C32.9999 13.513 31.9601 16.0677 29.7272 18.7619C27.7296 21.1724 24.859 23.6188 21.5349 26.4517C20.3989 27.4195 19.1116 28.5168 17.7754 29.6852C17.4227 29.9939 16.9695 30.1641 16.5 30.1641V30.1641ZM9.21879 2.73778C7.21647 2.73778 5.37704 3.5369 4.03889 4.9881C2.68084 6.4612 1.93283 8.49752 1.93283 10.7222C1.93283 13.0694 2.80522 15.1687 4.76121 17.5288C6.65175 19.8101 9.46377 22.2064 12.7196 24.9812L12.7257 24.9862C13.8639 25.9563 15.1543 27.056 16.4972 28.2302C17.8482 27.0537 19.1405 25.9522 20.281 24.9807C23.5367 22.2059 26.3484 19.8101 28.239 17.5288C30.1947 15.1687 31.0671 13.0694 31.0671 10.7222C31.0671 8.49752 30.3191 6.4612 28.9611 4.9881C27.6231 3.5369 25.7835 2.73778 23.7814 2.73778C22.3146 2.73778 20.9679 3.20406 19.7788 4.12352C18.7191 4.94328 17.9809 5.97957 17.5481 6.70467C17.3255 7.07754 16.9338 7.3001 16.5 7.3001C16.0662 7.3001 15.6744 7.07754 15.4519 6.70467C15.0193 5.97957 14.2811 4.94328 13.2212 4.12352C12.0321 3.20406 10.6854 2.73778 9.21879 2.73778V2.73778Z" fill="black"/>
</svg>
