<svg width="34" height="34" viewBox="0 0 34 34" fill="none" xmlns="http://www.w3.org/2000/svg">
<g clip-path="url(#clip0)">
<path d="M16.0507 0.216712C15.7572 -0.0668295 15.2894 -0.0586551 15.0058 0.234862C14.7293 0.521243 14.7293 0.9752 15.0058 1.26151L30.7392 16.9963L15.0044 32.7296C14.7109 33.0131 14.7027 33.4809 14.9862 33.7745C15.2698 34.068 15.7375 34.0761 16.0311 33.7926C16.0373 33.7867 16.0433 33.7806 16.0493 33.7745L32.3057 17.518C32.5942 17.2295 32.5942 16.7617 32.3057 16.4731L16.0507 0.216712Z" fill="#009688"/>
<path d="M19.0064 16.4732L2.74991 0.216712C2.45639 -0.0668295 1.98858 -0.0586551 1.70504 0.234862C1.4285 0.521243 1.4285 0.9752 1.70504 1.26158L17.4384 16.9963L1.70359 32.7296C1.41007 33.0131 1.40196 33.4809 1.68544 33.7745C1.96898 34.068 2.43672 34.0761 2.7303 33.7926C2.73647 33.7867 2.7425 33.7806 2.74845 33.7745L19.0049 17.518C19.2937 17.2299 19.2944 16.7621 19.0064 16.4732Z" fill="#009688"/>
<path d="M15.5274 33.9917C15.1193 33.9925 14.7879 33.6622 14.7871 33.2541C14.7868 33.0573 14.8649 32.8685 15.0042 32.7296L30.739 16.9963L15.0042 1.26302C14.7207 0.969503 14.7289 0.501692 15.0224 0.21815C15.3087 -0.0583939 15.7627 -0.0583939 16.049 0.21815L32.3055 16.4746C32.594 16.7632 32.594 17.2309 32.3055 17.5195L16.0491 33.7759C15.9106 33.9141 15.723 33.9917 15.5274 33.9917Z" fill="#343A40"/>
<path d="M2.2266 33.9917C1.8185 33.9925 1.48709 33.6622 1.48633 33.2541C1.48598 33.0573 1.56412 32.8686 1.70344 32.7296L17.4382 16.9963L1.70344 1.26303C1.41449 0.974088 1.41449 0.505653 1.70344 0.216708C1.99238 -0.0722361 2.46082 -0.0722361 2.74976 0.216708L19.0062 16.4732C19.2947 16.7617 19.2947 17.2295 19.0062 17.5181L2.74976 33.7745C2.61114 33.9135 2.42292 33.9917 2.2266 33.9917Z" fill="#343A40"/>
</g>
<defs>
<clipPath id="clip0">
<rect width="34" height="34" fill="white"/>
</clipPath>
</defs>
</svg>
