<svg width="20" height="19" viewBox="0 0 20 19" fill="none" xmlns="http://www.w3.org/2000/svg">
<g clip-path="url(#clip0)">
<path d="M14.2451 0H5.71274C2.93585 0 0.676758 2.25909 0.676758 5.03597V13.5682C0.676758 16.3451 2.93585 18.6041 5.71274 18.6041H14.2451C17.0218 18.6041 19.2809 16.3451 19.2809 13.5682V5.03597C19.2809 2.25909 17.0218 0 14.2451 0ZM18.1903 13.5682C18.1903 15.7437 16.4204 17.5135 14.2451 17.5135H5.71274C3.53725 17.5135 1.76741 15.7437 1.76741 13.5682V5.03597C1.76741 2.86048 3.53725 1.09065 5.71274 1.09065H14.2451C16.4204 1.09065 18.1903 2.86048 18.1903 5.03597V13.5682Z" fill="white"/>
<path d="M8.63998 9.02131C9.23726 8.76128 9.53618 8.20247 9.53618 7.34488C9.53618 6.10789 8.82975 5.48932 7.4169 5.48932H5.38207C5.22026 5.48932 5.07974 5.52793 4.96037 5.60528C4.84071 5.68264 4.7811 5.7881 4.7811 5.92152V12.7746C4.7811 12.8871 4.83731 12.9855 4.94986 13.0698C5.06214 13.1541 5.20635 13.1963 5.38207 13.1963H7.61732C8.26385 13.1963 8.77695 13.0189 9.15664 12.6639C9.53618 12.309 9.72596 11.7414 9.72596 10.9612V10.7398C9.72596 10.2478 9.6344 9.87351 9.45173 9.61689C9.26891 9.3604 8.99838 9.16197 8.63998 9.02131ZM6.14115 6.69125H7.31144C7.57857 6.69125 7.78764 6.77031 7.93881 6.92843C8.08983 7.08655 8.16548 7.30272 8.16548 7.57681C8.16548 7.85799 8.09338 8.07941 7.94931 8.24108C7.80524 8.40275 7.59617 8.48351 7.32208 8.48351H6.14115V6.69125ZM8.35525 10.8452C8.35525 11.6114 8.01432 11.9945 7.33259 11.9945H6.14115V9.55897H7.33259C7.66997 9.55897 7.92461 9.64698 8.09693 9.82255C8.2691 9.99827 8.35525 10.283 8.35525 10.6766V10.8452Z" fill="white"/>
<path d="M14.5442 11.0455C14.6917 11.0455 14.8112 11.0386 14.9026 11.0247C14.9938 11.0107 15.0941 10.9758 15.2031 10.9202C15.3119 10.8646 15.3928 10.7687 15.4455 10.6331C15.4983 10.4974 15.5247 10.3252 15.5247 10.1163C15.5247 9.54438 15.3119 9.06946 14.8868 8.69176C14.4614 8.31406 13.95 8.125 13.3528 8.125C12.713 8.125 12.1683 8.33251 11.7185 8.74712C11.2687 9.16186 11.0437 9.65751 11.0437 10.2338V11.1298C11.0437 11.7766 11.281 12.2986 11.7554 12.6956C12.2299 13.0927 12.8431 13.2913 13.5952 13.2913C14.1223 13.2913 14.5633 13.1948 14.9183 13.0013C15.2732 12.8081 15.4509 12.6129 15.4509 12.4161C15.4509 12.2896 15.4016 12.1578 15.3033 12.0208C15.2048 11.8837 15.0819 11.8151 14.9342 11.8151C14.8567 11.8151 14.6881 11.8821 14.4281 12.0155C14.1681 12.1491 13.9045 12.2158 13.6373 12.2158C13.2648 12.2158 12.9661 12.1227 12.7413 11.9365C12.5162 11.7502 12.4039 11.506 12.4039 11.2036V11.0455H14.5442ZM12.4039 9.9685C12.4039 9.73884 12.4952 9.55333 12.678 9.41224C12.8607 9.27115 13.075 9.20047 13.3211 9.20047C13.581 9.20047 13.8009 9.27286 13.9801 9.41706C14.1593 9.56156 14.249 9.74877 14.249 9.97843C14.249 10.0835 14.226 10.154 14.1804 10.1901C14.1346 10.2263 14.0555 10.2443 13.9432 10.2443H12.4039V9.9685Z" fill="white"/>
<path d="M15.0073 6.46289H11.5965C11.2953 6.46289 11.0511 6.70717 11.0511 7.00822C11.0511 7.30941 11.2953 7.55369 11.5965 7.55369H15.0073C15.3085 7.55369 15.5528 7.30941 15.5528 7.00822C15.5528 6.70717 15.3085 6.46289 15.0073 6.46289Z" fill="white"/>
</g>
<defs>
<clipPath id="clip0">
<rect width="18.6042" height="18.6042" fill="white" transform="translate(0.676758)"/>
</clipPath>
</defs>
</svg>
