<svg width="12" height="19" viewBox="0 0 12 19" fill="none" xmlns="http://www.w3.org/2000/svg">
<path d="M7.25649 18.5679H4.35666C3.87229 18.5679 3.47828 18.1631 3.47828 17.6654V10.9455H1.78646C1.30209 10.9455 0.908081 10.5405 0.908081 10.043V7.16352C0.908081 6.66588 1.30209 6.26108 1.78646 6.26108H3.47828V4.81912C3.47828 3.38937 3.91526 2.17296 4.74183 1.3016C5.57213 0.426262 6.73248 -0.0363159 8.09743 -0.0363159L10.309 -0.0326255C10.7925 -0.0317739 11.1858 0.373035 11.1858 0.86982V3.54338C11.1858 4.04101 10.792 4.44582 10.3077 4.44582L8.81872 4.44639C8.36462 4.44639 8.24898 4.53993 8.22425 4.5686C8.1835 4.61615 8.135 4.75056 8.135 5.12173V6.26093H10.1958C10.351 6.26093 10.5013 6.30025 10.6305 6.37434C10.9091 6.53431 11.0824 6.83678 11.0824 7.16366L11.0813 10.0432C11.0813 10.5405 10.6872 10.9453 10.2029 10.9453H8.135V17.6654C8.135 18.1631 7.74085 18.5679 7.25649 18.5679ZM4.53985 17.4772H7.0733V10.4572C7.0733 10.1249 7.33648 9.85468 7.65976 9.85468H10.0197L10.0207 7.35173H7.65962C7.33634 7.35173 7.0733 7.08148 7.0733 6.7492V5.12173C7.0733 4.69563 7.11544 4.21106 7.42849 3.84684C7.80675 3.40655 8.40288 3.35573 8.81845 3.35573L10.1243 3.35517V1.05775L8.0966 1.05434C5.903 1.05434 4.53985 2.497 4.53985 4.81912V6.7492C4.53985 7.08134 4.2768 7.35173 3.95353 7.35173H1.96965V9.85468H3.95353C4.2768 9.85468 4.53985 10.1249 4.53985 10.4572V17.4772ZM10.3069 1.05803H10.307H10.3069Z" fill="white"/>
</svg>
