<svg width="19" height="19" viewBox="0 0 19 19" fill="none" xmlns="http://www.w3.org/2000/svg">
<g clip-path="url(#clip0)">
<path d="M13.8491 0H5.31686C2.53997 0 0.280884 2.25909 0.280884 5.03597V13.5683C0.280884 16.3451 2.53997 18.6041 5.31686 18.6041H13.8492C16.6259 18.6041 18.885 16.3451 18.885 13.5683V5.03597C18.885 2.25909 16.6259 0 13.8491 0V0ZM17.7944 13.5683C17.7944 15.7437 16.0245 17.5135 13.8491 17.5135H5.31686C3.14137 17.5135 1.37154 15.7437 1.37154 13.5683V5.03597C1.37154 2.86048 3.14137 1.09065 5.31686 1.09065H13.8492C16.0245 1.09065 17.7944 2.86048 17.7944 5.03597V13.5683Z" fill="white"/>
<path d="M9.58296 4.21509C6.77797 4.21509 4.49603 6.49703 4.49603 9.30201C4.49603 12.107 6.77797 14.3889 9.58296 14.3889C12.3879 14.3889 14.6699 12.107 14.6699 9.30201C14.6699 6.49703 12.3879 4.21509 9.58296 4.21509ZM9.58296 13.2983C7.37951 13.2983 5.58669 11.5056 5.58669 9.30201C5.58669 7.09856 7.37951 5.30574 9.58296 5.30574C11.7866 5.30574 13.5792 7.09856 13.5792 9.30201C13.5792 11.5056 11.7866 13.2983 9.58296 13.2983Z" fill="white"/>
<path d="M14.7915 2.40857C13.9626 2.40857 13.2884 3.08292 13.2884 3.9117C13.2884 4.74062 13.9626 5.41496 14.7915 5.41496C15.6204 5.41496 16.2948 4.74062 16.2948 3.9117C16.2948 3.08278 15.6204 2.40857 14.7915 2.40857ZM14.7915 4.32417C14.5641 4.32417 14.379 4.13908 14.379 3.9117C14.379 3.68417 14.5641 3.49922 14.7915 3.49922C15.019 3.49922 15.2041 3.68417 15.2041 3.9117C15.2041 4.13908 15.019 4.32417 14.7915 4.32417Z" fill="white"/>
</g>
<defs>
<clipPath id="clip0">
<rect width="18.6042" height="18.6042" fill="white" transform="translate(0.280884)"/>
</clipPath>
</defs>
</svg>
