<svg width="34" height="34" viewBox="0 0 34 34" fill="none" xmlns="http://www.w3.org/2000/svg">
<g clip-path="url(#clip0)">
<path d="M17.9495 33.7833C18.243 34.0668 18.7109 34.0587 18.9944 33.7651C19.2709 33.4788 19.2709 33.0248 18.9944 32.7385L3.26109 17.0037L18.9959 1.27041C19.2894 0.986866 19.2975 0.519123 19.014 0.225536C18.7305 -0.0679818 18.2627 -0.0760842 17.9691 0.207386C17.963 0.213344 17.9569 0.219372 17.951 0.225536L1.69451 16.482C1.40605 16.7705 1.40605 17.2383 1.69451 17.5269L17.9495 33.7833Z" fill="#009688"/>
<path d="M14.9936 17.5268L31.2501 33.7833C31.5436 34.0668 32.0114 34.0587 32.295 33.7651C32.5715 33.4788 32.5715 33.0248 32.295 32.7384L16.5616 17.0036L32.2964 1.27041C32.5899 0.986866 32.598 0.519123 32.3146 0.225536C32.031 -0.0679818 31.5633 -0.0760842 31.2697 0.207386C31.2635 0.213344 31.2575 0.219372 31.2515 0.225536L14.9951 16.482C14.7063 16.7701 14.7056 17.2379 14.9936 17.5268Z" fill="#009688"/>
<path d="M18.4726 0.00831216C18.8807 0.00754926 19.2121 0.337849 19.2129 0.745945C19.2132 0.942684 19.1351 1.13146 18.9958 1.27042L3.26101 17.0037L18.9958 32.737C19.2793 33.0305 19.2711 33.4983 18.9776 33.7818C18.6913 34.0584 18.2373 34.0584 17.951 33.7818L1.6945 17.5254C1.40604 17.2368 1.40604 16.7691 1.6945 16.4805L17.9509 0.224102C18.0894 0.0858993 18.277 0.00831214 18.4726 0.00831216Z" fill="#C8C8C8"/>
<path d="M31.7732 0.00841897C32.1813 0.00765607 32.5127 0.337955 32.5134 0.746052C32.5138 0.942791 32.4356 1.13157 32.2963 1.27053L16.5616 17.0038L32.2963 32.7371C32.5853 33.026 32.5853 33.4945 32.2963 33.7834C32.0074 34.0724 31.5389 34.0724 31.25 33.7834L14.9935 17.5269C14.7051 17.2384 14.7051 16.7707 14.9935 16.4821L31.25 0.225662C31.3886 0.0866279 31.5768 0.00841895 31.7732 0.00841897Z" fill="#C8C8C8"/>
</g>
<defs>
<clipPath id="clip0">
<rect width="34" height="34" fill="white" transform="translate(34 34) rotate(-180)"/>
</clipPath>
</defs>
</svg>
