<svg width="30" height="20" viewBox="0 0 30 20" fill="none" xmlns="http://www.w3.org/2000/svg">
<path d="M28.9767 0.859375H1.02333C0.459137 0.859375 0 1.31851 0 1.88271V18.0811C0 18.6453 0.459137 19.1042 1.02333 19.1042H28.9767C29.5409 19.1042 30 18.6453 30 18.0811V1.88271C30 1.31851 29.5409 0.859375 28.9767 0.859375V0.859375ZM1.75964 3.38051L10.1683 8.96935L1.75964 16.289V3.38051ZM15 10.0677L3.79303 2.61902H26.207L15 10.0677ZM11.6881 9.97917L14.4335 11.804C14.6056 11.9185 14.8027 11.9757 15 11.9757C15.1971 11.9757 15.3944 11.9183 15.5665 11.804L18.3119 9.97917L26.773 17.3446H3.22701L11.6881 9.97917ZM19.8317 8.96912L28.2404 3.38028V16.289L19.8317 8.96912Z" fill="white"/>
</svg>
