<svg width="30" height="30" viewBox="0 0 30 30" fill="none" xmlns="http://www.w3.org/2000/svg">
<g opacity="0.8" clip-path="url(#clip0)">
<path d="M25.7388 4.26109C22.9909 1.51314 19.3382 0 15.4518 0C15.4515 0 15.4506 0 15.4504 0C13.5282 0.000228882 11.6551 0.372391 9.88329 1.10641C8.11129 1.84044 6.52376 2.90176 5.16443 4.26109C2.41671 7.00882 0.903568 10.6622 0.903568 14.5482C0.903568 16.8656 1.46273 19.1686 2.52222 21.2206L0.0768467 28.2065C-0.0955013 28.6993 0.0264927 29.2348 0.395908 29.604C0.654316 29.8627 0.994434 30 1.34417 30C1.49408 30 1.6456 29.9748 1.79346 29.9231L8.77939 27.478C10.8313 28.5374 13.1343 29.0966 15.4518 29.0966C19.3377 29.0966 22.9909 27.5832 25.7388 24.8355C28.4866 22.0878 29.9999 18.4344 29.9999 14.5484C29.9999 10.6622 28.4868 7.00882 25.7388 4.26109ZM24.4946 23.5913C22.0793 26.0069 18.8676 27.337 15.4518 27.337C13.3621 27.337 11.2861 26.8201 9.44818 25.8419C9.11493 25.6647 8.72103 25.6343 8.3674 25.7581L2.02051 27.9794L4.24204 21.6325C4.36586 21.2785 4.33519 20.8846 4.15804 20.5515C3.18003 18.7141 2.66298 16.6381 2.66298 14.5482C2.66298 11.1324 3.99324 7.92068 6.40863 5.50529C8.8238 3.09013 12.035 1.75987 15.4506 1.75941H15.4518C18.8678 1.75941 22.0793 3.08968 24.4946 5.50529C26.9103 7.92068 28.2405 11.1321 28.2405 14.5482C28.2405 17.9642 26.9103 21.1759 24.4946 23.5913Z" fill="white"/>
<path d="M20.8584 15.8477C20.1892 15.1784 19.1002 15.1784 18.4309 15.8477L17.6989 16.5796C15.8814 15.5893 14.4106 14.1185 13.42 12.3009L14.152 11.569C14.8214 10.8997 14.8214 9.81068 14.152 9.14143L12.1795 7.16893C11.5102 6.49968 10.4212 6.49968 9.75193 7.16893L8.17402 8.74684C7.27016 9.6507 7.22507 11.2046 8.04699 13.1224C8.76064 14.7875 10.0666 16.6176 11.7244 18.2754C13.3822 19.9332 15.2124 21.2392 16.8775 21.9529C17.7887 22.3433 18.6174 22.5381 19.3336 22.5381C20.1249 22.5381 20.7785 22.3003 21.253 21.8258L22.8309 20.2477V20.2479C23.1552 19.9236 23.3338 19.4926 23.3338 19.0342C23.3338 18.5755 23.1552 18.1445 22.8309 17.8204L20.8584 15.8477ZM20.0088 20.5816C19.7509 20.8396 18.9576 20.93 17.5708 20.3358C16.1064 19.7082 14.4719 18.5345 12.9686 17.0312C11.4653 15.5279 10.2919 13.8937 9.66427 12.4293C9.06986 11.0425 9.16027 10.249 9.41822 9.99104L10.9659 8.44334L12.8775 10.3552L11.9613 11.2716C11.547 11.6859 11.447 12.3142 11.7128 12.8351C12.9174 15.1972 14.8027 17.0825 17.1647 18.2871C17.6859 18.5528 18.3142 18.453 18.7284 18.0385L19.6447 17.1223L21.5565 19.0342L20.0088 20.5816Z" fill="white"/>
</g>
<defs>
<clipPath id="clip0">
<rect width="30" height="30" fill="white"/>
</clipPath>
</defs>
</svg>
