<svg width="34" height="34" viewBox="0 0 34 34" fill="none" xmlns="http://www.w3.org/2000/svg">
<g clip-path="url(#clip0)">
<path d="M16.0505 0.216712C15.757 -0.0668295 15.2891 -0.0586551 15.0056 0.234862C14.7291 0.521243 14.7291 0.9752 15.0056 1.26151L30.7389 16.9963L15.0041 32.7296C14.7106 33.0131 14.7025 33.4809 14.986 33.7745C15.2695 34.068 15.7373 34.0761 16.0309 33.7926C16.037 33.7867 16.0431 33.7806 16.049 33.7745L32.3055 17.518C32.594 17.2295 32.594 16.7617 32.3055 16.4731L16.0505 0.216712Z" fill="#009688"/>
<path d="M19.0064 16.4732L2.74991 0.216712C2.45639 -0.0668295 1.98858 -0.0586551 1.70504 0.234862C1.4285 0.521243 1.4285 0.9752 1.70504 1.26158L17.4384 16.9963L1.70359 32.7296C1.41007 33.0131 1.40196 33.4809 1.68544 33.7745C1.96898 34.068 2.43672 34.0761 2.7303 33.7926C2.73647 33.7867 2.7425 33.7806 2.74845 33.7745L19.0049 17.518C19.2937 17.2299 19.2944 16.7621 19.0064 16.4732Z" fill="#009688"/>
<path d="M15.5274 33.9917C15.1193 33.9925 14.7879 33.6622 14.7871 33.2541C14.7868 33.0573 14.8649 32.8685 15.0042 32.7296L30.739 16.9963L15.0042 1.26302C14.7207 0.969503 14.7289 0.501692 15.0224 0.21815C15.3087 -0.0583939 15.7627 -0.0583939 16.049 0.21815L32.3055 16.4746C32.594 16.7632 32.594 17.2309 32.3055 17.5195L16.0491 33.7759C15.9106 33.9141 15.723 33.9917 15.5274 33.9917Z" fill="#C8C8C8"/>
<path d="M2.22684 33.9916C1.81875 33.9923 1.48734 33.662 1.48657 33.2539C1.48623 33.0572 1.56437 32.8684 1.70368 32.7295L17.4384 16.9962L1.70368 1.26291C1.41474 0.973966 1.41474 0.505531 1.70368 0.216586C1.99262 -0.0723582 2.46106 -0.0723582 2.75 0.216586L19.0065 16.4731C19.2949 16.7616 19.2949 17.2293 19.0065 17.5179L2.75 33.7743C2.61139 33.9134 2.42317 33.9916 2.22684 33.9916Z" fill="#C8C8C8"/>
</g>
<defs>
<clipPath id="clip0">
<rect width="34" height="34" fill="white"/>
</clipPath>
</defs>
</svg>
