<svg width="30" height="30" viewBox="0 0 30 30" fill="none" xmlns="http://www.w3.org/2000/svg">
<g opacity="0.8" clip-path="url(#clip0)">
<path d="M28.5279 17.6116C28.6854 16.7456 28.765 15.887 28.765 15.0577C28.765 13.1912 28.3981 11.38 27.6744 9.67468C26.9534 7.97581 25.9623 6.48768 24.7291 5.2516C23.4966 4.01643 22.0114 3.02343 20.3144 2.30058C18.6127 1.57544 16.805 1.20782 14.9417 1.20782C14.1152 1.20782 13.2582 1.28786 12.3928 1.44564C11.0468 0.505615 9.52974 0.0292969 7.88156 0.0292969C5.70008 0.0292969 3.81135 0.813376 2.26777 2.35975C0.724184 3.90589 -0.0585938 5.79832 -0.0585938 7.98429C-0.0585938 9.63707 0.416795 11.1571 1.35498 12.5044C1.19751 13.3706 1.11786 14.2289 1.11786 15.058C1.11786 16.9252 1.48476 18.7364 2.20849 20.4415C2.92969 22.1404 3.92052 23.6287 5.15374 24.8646C6.38627 26.1 7.87172 27.0927 9.56842 27.8158C11.2702 28.541 13.0779 28.9086 14.9412 28.9086C15.7672 28.9086 16.6239 28.8285 17.4898 28.6708C18.8359 29.6108 20.3529 30.0871 22.0015 30.0871C24.1828 30.0871 26.0715 29.303 27.6153 27.7567C29.1587 26.2101 29.9415 24.3176 29.9415 22.1321C29.9415 20.4802 29.4661 18.96 28.5279 17.6116ZM26.3716 26.5102C25.1528 27.7312 23.7234 28.3247 22.0015 28.3247C20.6646 28.3247 19.4882 27.9438 18.4047 27.1602C18.1591 26.9827 17.8633 26.8884 17.5644 26.8884C17.4756 26.8884 17.3866 26.8969 17.2985 26.9139C16.4939 27.068 15.7009 27.1462 14.9412 27.1462C13.3157 27.1462 11.7396 26.8258 10.2569 26.194C8.76848 25.5599 7.47026 24.6935 6.39772 23.6186C5.32449 22.5431 4.45977 21.2421 3.82737 19.7519C3.1968 18.2661 2.87705 16.6869 2.87705 15.058C2.87705 14.2954 2.95487 13.5008 3.10845 12.6966C3.18215 12.3108 3.09243 11.9065 2.86217 11.5873C2.08031 10.5032 1.70037 9.32472 1.70037 7.98429C1.70037 6.25881 2.29271 4.82665 3.51128 3.60593C4.73008 2.3852 6.15968 1.7917 7.88156 1.7917C9.21755 1.7917 10.3933 2.17238 11.4766 2.95509C11.7961 3.18625 12.2001 3.27615 12.5846 3.20276C13.3885 3.04842 14.1815 2.97022 14.9417 2.97022C16.5672 2.97022 18.1433 3.2906 19.626 3.9224C21.1144 4.5565 22.4128 5.42313 23.4852 6.49777C24.5584 7.57333 25.4231 8.87432 26.0555 10.3645C26.6863 11.8503 27.0058 13.4295 27.0058 15.058C27.0058 15.8207 26.928 16.6153 26.7744 17.4198C26.7007 17.8049 26.7909 18.2094 27.0214 18.5298C27.8026 19.6148 28.1825 20.7933 28.1825 22.1323C28.1825 23.8574 27.5902 25.2893 26.3716 26.5102Z" fill="white"/>
<path d="M18.7354 14.242C18.2028 13.8814 17.6178 13.5425 16.9964 13.2347C16.3848 12.9323 15.8087 12.6775 15.2839 12.4775C14.8843 12.3252 14.5512 12.131 14.2937 11.8996C14.1026 11.728 14.0768 11.5918 14.0768 11.4811C14.0768 11.2584 14.1443 11.1286 14.3258 11.0022C14.5879 10.8199 15.0278 10.7233 15.5979 10.7233C16.1566 10.7233 16.6661 10.8307 17.1111 11.0423C17.9755 11.4542 18.2767 11.5322 18.5297 11.5322C19.1824 11.5322 19.7382 11.1985 20.0952 10.5917C20.3731 10.1181 20.5138 9.63793 20.5138 9.16413C20.5138 8.56925 20.2564 8.03514 19.7686 7.61845C19.3758 7.28409 18.878 7.03871 18.2882 6.88895C17.795 6.7642 17.3196 6.67292 16.8742 6.61743C16.4285 6.56216 15.9991 6.53418 15.5979 6.53418C14.876 6.53418 14.1798 6.61995 13.5281 6.78942C12.8621 6.96303 12.2276 7.2396 11.6428 7.61111C11.0029 8.01771 10.4883 8.58852 10.113 9.30769C9.74333 10.0154 9.55588 10.8325 9.55588 11.7365C9.55588 12.5445 9.70877 13.2822 10.0102 13.9289C10.3151 14.5841 10.7287 15.1212 11.2395 15.5253C11.6845 15.8773 12.1812 16.1974 12.7163 16.477C13.2258 16.7435 13.7364 16.9861 14.2331 17.198C14.6872 17.3923 15.1088 17.595 15.4855 17.8C15.7787 17.9601 16.0053 18.1509 16.1777 18.3823C16.3127 18.5641 16.3757 18.7591 16.3757 18.9953C16.3757 19.3922 16.2321 19.5459 16.0772 19.6525C15.7709 19.8633 15.378 19.9658 14.8758 19.9658C14.497 19.9658 14.166 19.9025 13.8632 19.772C13.4773 19.6057 13.2807 19.4583 13.183 19.3629C12.9367 19.1239 12.6803 18.9029 12.421 18.7065C12.0324 18.4121 11.6431 18.263 11.264 18.263C10.8493 18.263 10.2446 18.4112 9.71953 19.118C9.35721 19.6055 9.17365 20.1155 9.17365 20.6343C9.17365 21.6227 9.80834 22.4887 11.0601 23.2081C12.1537 23.8364 13.4659 24.155 14.9607 24.155C16.684 24.155 18.1085 23.6853 19.1953 22.7588C20.3241 21.7968 20.8965 20.4373 20.8965 18.7185C20.8965 17.7124 20.6908 16.8114 20.285 16.0401C19.8782 15.2682 19.3571 14.6632 18.7354 14.242ZM18.0554 21.4165C17.285 22.0733 16.2727 22.3926 14.9607 22.3926C13.7767 22.3926 12.7589 22.1527 11.9351 21.6791C11.2979 21.3131 10.9324 20.9322 10.9324 20.6343C10.9324 20.5033 10.999 20.3472 11.1304 20.1706C11.1848 20.0972 11.2265 20.0587 11.2512 20.0396C11.2764 20.0536 11.3128 20.0766 11.3604 20.1126C11.5625 20.2655 11.7637 20.4391 11.9573 20.6272C12.2569 20.9196 12.6533 21.1693 13.1683 21.3911C13.6874 21.6149 14.2617 21.7282 14.8756 21.7282C15.7334 21.7282 16.4729 21.5186 17.0733 21.1051C17.7675 20.627 18.1346 19.8975 18.1346 18.9953C18.1346 18.3784 17.951 17.8184 17.5883 17.3296C17.2651 16.8951 16.8405 16.5325 16.326 16.2518C15.9 16.0199 15.4283 15.7929 14.9229 15.5769C14.4677 15.3826 13.9989 15.1597 13.5297 14.9146C13.0921 14.6857 12.6884 14.4259 12.3295 14.142C12.0319 13.9067 11.7948 13.5934 11.6041 13.1838C11.4123 12.7717 11.3148 12.2849 11.3148 11.7365C11.3148 11.1201 11.435 10.5777 11.6717 10.1246C11.9054 9.67669 12.204 9.34141 12.5849 9.09946C13.0154 8.82587 13.4819 8.62246 13.9706 8.49518C14.4775 8.36331 15.025 8.29658 15.5979 8.29658C15.9273 8.29658 16.2841 8.31997 16.6576 8.3663C17.0307 8.41285 17.4345 8.49082 17.8572 8.59769C18.1834 8.68048 18.4431 8.80271 18.6285 8.96049C18.7549 9.0685 18.7549 9.12836 18.7549 9.16413C18.7549 9.31962 18.6956 9.49918 18.5793 9.69733C18.5661 9.7198 18.5546 9.73654 18.5452 9.7487C18.4409 9.7104 18.2369 9.62715 17.8657 9.45034C17.1827 9.12561 16.4196 8.96095 15.5979 8.96095C14.654 8.96095 13.8882 9.16069 13.3221 9.55491C12.665 10.0124 12.3178 10.6784 12.3178 11.4811C12.3178 12.1427 12.5954 12.7414 13.12 13.2123C13.5389 13.5884 14.0564 13.8954 14.6586 14.1248C15.1317 14.305 15.656 14.5373 16.2173 14.8148C16.7675 15.0873 17.2834 15.3858 17.7501 15.7021C18.1296 15.9592 18.4589 16.3497 18.729 16.8625C19 17.3773 19.1373 18.002 19.1373 18.7185C19.1373 19.9135 18.7835 20.796 18.0554 21.4165Z" fill="white"/>
</g>
<defs>
<clipPath id="clip0">
<rect width="30" height="30" fill="white"/>
</clipPath>
</defs>
</svg>
