<svg width="19" height="16" viewBox="0 0 19 16" fill="none" xmlns="http://www.w3.org/2000/svg">
<path d="M7.15159 15.9948C4.04654 15.9948 1.59242 15.4523 0.418305 14.5067L0.395453 14.4883L0.37473 14.4676C0.0958209 14.1885 0.00441241 13.8225 0.124209 13.4634L0.135138 13.4336C0.280483 13.07 0.636607 12.8253 1.02254 12.8231C1.81683 12.8093 2.51176 12.7146 3.14239 12.5308C2.13647 12.063 1.43771 11.2529 1.02197 10.0805C0.88216 9.7149 1.00281 9.30953 1.32501 9.06781C1.40449 9.00805 1.49434 8.96291 1.58944 8.93268C1.03049 8.28743 0.617587 7.55318 0.386369 6.77663L0.37913 6.7525L0.374162 6.72781C0.29567 6.33506 0.471248 5.93125 0.793023 5.75737C0.928007 5.67987 1.07463 5.6397 1.22182 5.6363C1.06313 5.29451 0.947736 4.94364 0.879322 4.59064C0.689408 3.6124 0.846108 2.63174 1.34488 1.67593L1.46028 1.44514C1.55268 1.26047 1.72925 1.13074 1.93279 1.09767C2.13633 1.06474 2.34498 1.13202 2.49075 1.27779L2.70096 1.48828C4.36164 3.2293 5.84916 4.05539 8.42094 4.62059C8.53577 3.6334 8.96258 2.71577 9.65112 1.99359C10.4705 1.13429 11.5647 0.652125 12.7322 0.63566H12.7399C13.5916 0.63566 14.6482 1.12194 15.2872 1.46487C15.8354 1.28545 16.4958 1.00768 17.1811 0.71401C17.5017 0.563555 17.897 0.632395 18.1491 0.884478C18.3962 1.13159 18.4648 1.48005 18.3336 1.81872C18.2838 1.95739 18.2273 2.09351 18.1645 2.22665C18.2583 2.26966 18.3442 2.32799 18.4167 2.40052C18.636 2.61982 18.7274 2.96303 18.6495 3.27501L18.6411 3.30467C18.3785 4.15091 17.8741 4.84016 17.2069 5.27279C17.0955 11.206 12.6276 15.9948 7.15159 15.9948ZM1.46453 13.8991C2.57095 14.5251 4.67944 14.9038 7.15159 14.9038C9.52835 14.9038 11.7713 13.8834 13.467 12.0305C15.1767 10.1624 16.1181 7.68178 16.1181 5.04541V5.01574C16.1181 4.777 16.2496 4.55913 16.4611 4.44699C16.8901 4.21975 17.2376 3.83268 17.4636 3.33774C17.2305 3.37451 16.9936 3.28097 16.8484 3.08595C16.6796 2.85927 16.6778 2.55311 16.8437 2.32445C16.9333 2.20096 17.0145 2.0725 17.0869 1.93965C16.4951 2.18818 15.9332 2.41103 15.4453 2.55907C15.2681 2.61272 15.0705 2.59172 14.9085 2.5013C14.04 2.01743 13.2311 1.72816 12.7434 1.72674C10.9438 1.75428 9.48052 3.29559 9.48052 5.16435C9.48052 5.35753 9.39478 5.53864 9.24561 5.66142C9.09629 5.78406 8.90212 5.83317 8.71249 5.7957C5.74711 5.21148 3.98991 4.33543 2.16259 2.49917C1.90071 3.12668 1.82917 3.75873 1.95025 4.38284C2.07302 5.01503 2.39963 5.64851 2.89485 6.2147C3.08306 6.42959 3.10804 6.73703 2.95702 6.97961C2.80656 7.22133 2.52056 7.33431 2.24562 7.26064C2.03073 7.20302 1.83315 7.12736 1.64579 7.03014C2.02746 7.8592 2.68393 8.62595 3.50916 9.19143C3.74833 9.35537 3.84825 9.66097 3.7523 9.93462C3.65621 10.2087 3.3878 10.3851 3.09768 10.3636C2.78158 10.3401 2.50154 10.2801 2.24378 10.1789C2.7065 11.1212 3.44585 11.6397 4.58491 11.8379C4.85616 11.8851 5.06736 12.0993 5.11051 12.3709C5.1538 12.6424 5.01939 12.9115 4.77625 13.0405C3.80539 13.5552 2.74425 13.8314 1.46453 13.8991Z" fill="white"/>
</svg>
