<svg width="22" height="19" viewBox="0 0 22 19" fill="none" xmlns="http://www.w3.org/2000/svg">
<path d="M17.3651 4.38663L17.3675 4.3808L17.368 4.37975L17.3682 4.37931C17.4161 4.26914 17.4701 4.19813 17.5319 4.1527C17.5889 4.11084 17.6901 4.0625 17.8864 4.0625H20.1361C20.255 4.0625 20.3266 4.07636 20.365 4.08848C20.3633 4.11664 20.3564 4.16044 20.3377 4.22206L20.8159 4.36777L20.3278 4.25939C20.2749 4.49766 20.0855 4.91304 19.7871 5.4463C19.4981 5.9627 19.1354 6.54046 18.7773 7.08499C18.4199 7.62845 18.0707 8.13341 17.8103 8.50302C17.6802 8.6877 17.5725 8.83824 17.4974 8.94251C17.4599 8.99464 17.4305 9.03513 17.4106 9.06245L17.4048 9.07044L17.3931 9.08176L17.3618 9.13084C17.3579 9.13693 17.354 9.14314 17.3499 9.14947C17.2469 9.31043 17.0946 9.54851 17.0716 9.82814C17.0442 10.1602 17.1951 10.4361 17.3894 10.68C17.4195 10.719 17.4568 10.7578 17.4772 10.779L17.4779 10.7798C17.51 10.8132 17.5509 10.8546 17.5975 10.9012C17.6471 10.9509 17.7075 11.0109 17.7754 11.0783C17.8335 11.136 17.897 11.1991 17.9638 11.2657C18.2583 11.5592 18.6402 11.9445 19.0303 12.363C19.4214 12.7825 19.8149 13.2294 20.1343 13.6461C20.4606 14.0717 20.6753 14.4225 20.7556 14.6609C20.7863 14.7642 20.7869 14.8256 20.7834 14.854C20.782 14.8651 20.7801 14.8709 20.7794 14.8728C20.779 14.8732 20.7785 14.8737 20.7777 14.8743C20.7759 14.8758 20.7728 14.8781 20.7681 14.8811C20.7584 14.8871 20.7417 14.8956 20.7152 14.9043C20.6607 14.9223 20.5755 14.9375 20.4531 14.9375H18.2034C18.0615 14.9375 17.9641 14.9116 17.8725 14.865C17.7706 14.8131 17.6533 14.7239 17.4867 14.5617C17.3509 14.4293 17.2024 14.269 17.0143 14.0658C16.9688 14.0166 16.9209 13.9649 16.8703 13.9104C16.6158 13.6366 16.3071 13.3098 15.9165 12.9303L15.9165 12.9302L15.9096 12.9237C14.5624 11.6635 13.8649 11.375 13.326 11.375C13.1543 11.375 12.8797 11.38 12.6492 11.5374C12.3862 11.717 12.3038 11.9985 12.2686 12.2249C12.2329 12.4542 12.2278 12.7549 12.2288 13.1193C12.2292 13.2756 12.2307 13.4414 12.2324 13.6245C12.2349 13.8983 12.2378 14.2108 12.2378 14.5877C12.2378 14.7913 12.2069 14.7944 12.1995 14.7951C12.1988 14.7952 12.1983 14.7952 12.1981 14.7954C12.1111 14.852 11.8469 14.9375 11.1298 14.9375C8.93907 14.9375 6.45872 13.6365 4.67262 11.1457L4.67265 11.1457L4.66922 11.1411C3.29582 9.27182 2.42603 7.63632 1.90127 6.40564C1.63876 5.79001 1.46353 5.27787 1.35475 4.89048C1.24181 4.48825 1.21039 4.25494 1.21039 4.18223C1.21039 4.13801 1.21426 4.11258 1.21735 4.09951C1.24279 4.0875 1.31605 4.0625 1.48192 4.0625H3.73157C3.94659 4.0625 4.00915 4.10639 4.04089 4.13456C4.09608 4.18353 4.17118 4.29307 4.27706 4.58158C4.83977 6.17542 5.59574 7.6704 6.31464 8.77457C6.67341 9.32561 7.03186 9.79312 7.3621 10.1294C7.52677 10.297 7.69561 10.4436 7.86429 10.5514C8.0243 10.6538 8.23355 10.7533 8.46768 10.7533C8.57058 10.7533 8.71202 10.7429 8.85577 10.6793C9.01357 10.6095 9.13522 10.4935 9.21838 10.3466C9.35849 10.099 9.384 9.76661 9.384 9.41836V6.19727V6.18312L9.3832 6.16901C9.33501 5.31771 9.07083 4.82261 8.80465 4.47006C8.74711 4.39385 8.69059 4.32573 8.64477 4.2705L8.63577 4.25965C8.58513 4.19858 8.55183 4.15769 8.52579 4.12101C8.51122 4.10049 8.50242 4.08602 8.49715 4.07631C8.49983 4.07469 8.50318 4.07297 8.50734 4.07131C8.5168 4.06754 8.53444 4.0625 8.56317 4.0625H12.1C12.152 4.0625 12.1838 4.06726 12.2009 4.07115C12.2044 4.08054 12.2088 4.0947 12.2133 4.11496C12.2252 4.16897 12.234 4.24984 12.234 4.36777V8.69844C12.234 9.28154 12.5413 9.82559 13.093 9.82559C13.6131 9.82559 13.9945 9.49568 14.4918 9.01252L14.5018 9.00281L14.5112 8.99257C15.3615 8.06904 16.0757 6.90998 16.5724 5.99751C16.8224 5.53835 17.0206 5.1354 17.1567 4.84662C17.2247 4.70213 17.2773 4.58595 17.3132 4.5053C17.3311 4.46496 17.3448 4.43349 17.3542 4.41177L17.3651 4.38663ZM17.3833 9.09977C17.3828 9.10044 17.383 9.10021 17.3835 9.0995L17.3833 9.09977ZM1.22109 4.0879C1.22112 4.08795 1.22084 4.0887 1.22012 4.08998C1.22069 4.08849 1.22105 4.08785 1.22109 4.0879ZM1.20712 4.10508C1.20649 4.10559 1.20615 4.10582 1.20613 4.10581L1.20712 4.10508Z" stroke="white"/>
</svg>
